<svg width="32" height="32" xmlns="http://www.w3.org/2000/svg" xmlns:svg="http://www.w3.org/2000/svg">
 <g class="layer">
  <g id="svg_1" transform="rotate(28.245 16.7112 16.2623)">
   <path d="m20.74,4.83c-0.05,0 -0.1,0 -0.15,0.01c-2,0.35 -3.1,2.5 -3.26,4.39c-0.23,1.72 0.51,3.93 2.37,4.31c0.27,0.05 0.55,0.03 0.81,-0.04c2.24,-0.76 3.24,-3.45 2.92,-5.68c-0.09,-1.44 -1.16,-3 -2.69,-2.98zm-8.48,0.09c-1.24,0.03 -2.21,1.31 -2.41,2.51c-0.42,2.39 0.65,5.35 3.1,6.1c0.23,0.05 0.47,0.06 0.7,0.02c1.65,-0.28 2.35,-2.17 2.28,-3.68c-0.05,-2 -1.07,-4.32 -3.12,-4.88c-0.19,-0.05 -0.37,-0.07 -0.55,-0.07zm13.89,6.77c-2.15,0.13 -3.62,2.31 -3.84,4.35c-0.28,1.46 0.48,3.42 2.13,3.55c2.3,-0.03 3.87,-2.52 3.94,-4.67c0.15,-1.42 -0.68,-3.15 -2.23,-3.22zm-18.83,0.48c-0.91,-0.01 -1.81,0.55 -2.11,1.49c-0.8,2.53 0.81,5.73 3.44,6.25c1.1,0.19 2.07,-0.66 2.34,-1.7c0.57,-2.21 -0.61,-4.77 -2.62,-5.77c-0.33,-0.18 -0.69,-0.27 -1.05,-0.28zm9.64,4.53c-1.79,0 -3.61,0.93 -4.77,2.3c-1.26,1.6 -2.29,3.47 -2.69,5.49c-0.49,1.46 0.62,3.13 2.15,3.15c1.84,0.05 3.43,-1.24 5.26,-1.33c1.55,-0.24 2.95,0.58 4.35,1.12c1.19,0.52 2.83,0.32 3.45,-0.99c0.48,-1.33 -0.23,-2.74 -0.81,-3.92c-1.19,-1.91 -2.47,-3.92 -4.42,-5.12c-0.78,-0.49 -1.65,-0.71 -2.53,-0.71z" fill="#7f3f00" id="svg_2"/>
  </g>
 </g>
</svg>